<?xml version="1.0" encoding="UTF-8"?>
<svg id="Camada_1" data-name="Camada 1" xmlns="http://www.w3.org/2000/svg" viewBox="0 0 787.77 550.51">
  <defs>
    <style>
      .cls-1 {
        fill: #ffe8e5;
        stroke-width: 0px;
      }
    </style>
  </defs>
  <g>
    <path class="cls-1" d="m270.55,280.11c1.19-.17,2.25.04,3.19.64.93.6,1.57,1.36,1.91,2.3.34.94.51,1.91.51,2.94s-.38,1.96-1.15,2.81c-.77.85-1.75,1.36-2.94,1.53-10.89,1.87-22.81,3.75-35.74,5.62.51,62.28,4.17,121.84,10.98,178.68.34,2.21-.22,3.83-1.66,4.85-1.45,1.02-3.06,1.23-4.85.64-1.79-.6-2.94-1.91-3.45-3.96-3.75-13.96-9.44-27.19-17.1-39.69-7.66-12.51-16.81-23.78-27.44-33.82-10.64-10.04-21.78-19.02-33.44-26.93-11.66-7.91-24.29-15.28-37.91-22.08-9.87-4.94-19.49-9.28-28.84-13.02-6.81,18.38-12.85,35.65-18.12,51.82-9.87,30.29-17.57,57.35-23.1,81.17-5.53,23.82-8.38,47.48-8.55,70.96,0,2.04-.89,3.4-2.68,4.08-1.79.68-3.53.47-5.23-.64-1.7-1.11-2.46-2.68-2.3-4.72.17-20.76,2.55-41.91,7.15-63.43,4.59-21.53,10.98-45.48,19.14-71.86,6.98-23.15,14.97-46.88,23.99-71.22-28.76-11.06-54.97-17.1-78.62-18.12-1.7,0-2.94-.81-3.7-2.42-.77-1.62-.81-3.27-.13-4.98.68-1.7,1.96-2.64,3.83-2.81,6.81-.51,14.47-1.15,22.97-1.91,8.51-.77,16.17-1.44,22.97-2.04,6.8-.59,14.55-1.23,23.23-1.91,8.68-.68,16.34-1.36,22.97-2.04,20.42-51.73,46.2-109.59,77.34-173.58,18.72-38.29,35.23-70.03,49.52-95.21.51-.68,1.49-2.55,2.94-5.62,1.44-3.06,2.89-5.95,4.34-8.68,1.44-2.72,3.15-5.53,5.11-8.42,1.95-2.89,4-5.19,6.13-6.89,2.13-1.7,4.12-2.38,6-2.04,1.36.17,2.51.81,3.45,1.91.93,1.11,1.32,2.34,1.15,3.7-11.23,101.59-16.59,194.85-16.08,279.77,11.91-1.7,23.31-3.49,34.21-5.36Zm-221.31,34.97c11.91,2.9,24.33,6.81,37.27,11.74,1.87-4.93,3.83-10.12,5.87-15.57-12.76,1.19-27.15,2.47-43.14,3.83Zm184.04,124.06c-4.26-45.95-6.64-93.26-7.15-141.93-34.04,4.59-74.71,8.93-122.02,13.02-2.72,7.15-5.36,13.96-7.91,20.42,13.27,5.62,26.71,12,40.33,19.14,45.6,24.5,77.85,54.28,96.74,89.34Zm-92.66-215.95c-11.74,26.55-22.46,51.99-32.16,76.32,45.27-4.08,84.4-8.34,117.42-12.76-.34-80.32,4.42-167.96,14.29-262.92-2.04,2.9-3.41,5.02-4.08,6.38-7.15,12.25-16,28.51-26.55,48.75-23.66,45.44-46.63,93.51-68.92,144.22Z"/>
    <path class="cls-1" d="m427.55,205.47c2.04-.17,3.61.51,4.72,2.04,1.1,1.53,1.36,3.19.77,4.98-.6,1.79-1.91,2.85-3.96,3.19-47.31,5.79-57.03,7.93-107.73,16.44-16.51,69.6-26.64,140.05-30.38,211.36-.17,2.04-1.15,3.4-2.94,4.08-1.79.68-3.49.51-5.11-.51s-2.43-2.55-2.43-4.59c3.91-70.28,13.87-139.8,29.87-208.55-25.7,4.43-37.26,6.42-57.51,10.16-1.19.17-2.25,0-3.19-.51-.93-.51-1.57-1.23-1.91-2.17-.34-.93-.51-1.91-.51-2.94s.38-1.95,1.15-2.81c.77-.85,1.75-1.44,2.94-1.79,21.1-3.91,34.11-6.16,61.85-10.93,4.76-19.91,9.61-38.2,14.55-54.88.68-2.04,1.91-3.15,3.7-3.32,1.79-.17,3.36.47,4.72,1.91,1.36,1.45,1.79,3.19,1.28,5.23-4.26,14.29-8.68,30.72-13.27,49.27,49.18-8.17,57.45-10.06,103.4-15.67Z"/>
    <path class="cls-1" d="m434.93,273.98c1.53-1.53,3.15-1.91,4.85-1.15,1.7.77,2.76,2.04,3.19,3.83.42,1.79-.04,3.53-1.4,5.23-35.06,35.91-65.35,50.8-90.87,44.67-9.02-2.04-15.83-6-20.42-11.87s-6.42-12.42-5.49-19.66c.94-7.23,4.3-14.17,10.08-20.8,4.59-4.93,10.55-8.93,17.87-12,10.89-4.42,16.25-1.7,16.08,8.17v.51c-.17,6.64-4.17,12.93-12,18.89-7.83,5.96-14.89,7.91-21.19,5.87-.68,7.66,2.55,13.36,9.7,17.1,7.15,3.75,14.97,4.85,23.48,3.32,12.08-2.21,23.36-6.93,33.82-14.17,10.47-7.23,21.23-16.55,32.29-27.95Zm-80.92-1.53c-2.39.17-4.98,1.62-7.79,4.34-2.81,2.72-5.23,5.7-7.27,8.93,3.57,1.7,7.91-.34,13.02-6.13,3.4-3.91,4.34-6.29,2.81-7.15h-.77Z"/>
    <path class="cls-1" d="m546.99,277.55c2.38-2.55,4.93-2.72,7.66-.51,2.72,2.04,2.98,4.26.77,6.64-4.08,4.43-7.96,8.47-11.61,12.12s-8.77,8.42-15.32,14.29c-6.55,5.87-12.64,10.85-18.25,14.93-5.62,4.08-11.96,7.91-19.02,11.49-7.06,3.57-13.49,5.83-19.27,6.76-5.79.93-11.53.3-17.23-1.91-5.7-2.21-10.68-6.38-14.93-12.51-2.39-3.57-4.26-7.91-5.62-13.02-1.36-5.1-2.17-9.91-2.43-14.42-.26-4.51-.13-10,.38-16.46.51-6.47,1.06-11.65,1.66-15.57.59-3.91,1.53-9.23,2.81-15.95,1.28-6.72,2.08-11.19,2.43-13.4,1.19-7.31,2.51-14.81,3.96-22.46,1.44-7.66,3.15-15.61,5.11-23.87,1.95-8.25,3.7-15.44,5.23-21.57,1.53-6.13,3.49-14.04,5.87-23.74,2.38-9.7,4.25-17.1,5.62-22.21.68-2.55,2.38-3.61,5.11-3.19,2.72.43,4.25,1.83,4.59,4.21,1.19,5.62,1.87,10.89,2.04,15.83.17,4.94-.17,9.92-1.02,14.93-.85,5.02-1.87,9.66-3.06,13.91-1.19,4.26-2.9,9.44-5.11,15.57-.51,1.7-1.62,2.72-3.32,3.06-1.7.34-3.15,0-4.34-1.02-7.66,33.02-12.51,61.35-14.55,85-.17,1.19-.47,3.79-.89,7.79-.43,4-.77,7.32-1.02,9.96-.26,2.64-.43,5.74-.51,9.32-.09,3.57.13,6.81.64,9.7.51,2.9,1.36,5.28,2.55,7.15,1.53,2.9,3.23,5.32,5.11,7.27,1.87,1.96,3.66,3.53,5.36,4.72,1.7,1.19,3.83,1.87,6.38,2.04,2.55.17,4.59.3,6.13.38,1.53.09,3.74-.42,6.64-1.53,2.89-1.1,4.98-1.87,6.25-2.3,1.28-.42,3.4-1.57,6.38-3.45,2.98-1.87,4.85-3.02,5.62-3.45.77-.42,4.12-2.76,10.08-7.02,15.48-10.89,29.87-23.4,43.14-37.52Z"/>
    <path class="cls-1" d="m550.82,268.88c.85-1.87,2.21-2.89,4.08-3.06,1.87-.17,3.45.43,4.72,1.79,1.28,1.36,1.57,3.06.89,5.1-8.68,21.79-12.85,43.91-12.51,66.37,0,2.9-1.45,4.34-4.34,4.34-3.06,0-4.93-1.36-5.62-4.08-.17-.51-.26-1.02-.26-1.53-.34-22.97,4-45.95,13.02-68.92Zm17.1-29.35c1.19,2.9.34,5.19-2.55,6.89l-18.12,10.72c-1.19.68-2.47.73-3.83.13-1.36-.59-2.3-1.49-2.81-2.68-1.19-2.72-.34-5.02,2.55-6.89l18.12-10.72c1.19-.68,2.46-.72,3.83-.13,1.36.6,2.3,1.49,2.81,2.68Z"/>
    <path class="cls-1" d="m676.92,273.98c1.53-1.53,3.15-1.91,4.85-1.15,1.7.77,2.76,2.04,3.19,3.83.42,1.79-.04,3.53-1.4,5.23-35.06,35.91-65.35,50.8-90.87,44.67-9.02-2.04-15.83-6-20.42-11.87s-6.42-12.42-5.49-19.66c.94-7.23,4.3-14.17,10.08-20.8,4.59-4.93,10.55-8.93,17.87-12,10.89-4.42,16.25-1.7,16.08,8.17v.51c-.17,6.64-4.17,12.93-12,18.89-7.83,5.96-14.89,7.91-21.19,5.87-.68,7.66,2.55,13.36,9.7,17.1,7.15,3.75,14.97,4.85,23.48,3.32,12.08-2.21,23.36-6.93,33.82-14.17,10.47-7.23,21.23-16.55,32.29-27.95Zm-80.92-1.53c-2.38.17-4.98,1.62-7.79,4.34-2.81,2.72-5.23,5.7-7.27,8.93,3.57,1.7,7.91-.34,13.02-6.13,3.4-3.91,4.34-6.29,2.81-7.15h-.77Z"/>
    <path class="cls-1" d="m779.28,275.77c1.02-.85,2.08-1.28,3.19-1.28s2.08.34,2.94,1.02c.85.68,1.49,1.49,1.91,2.42.42.94.55,1.91.38,2.94-.17,1.02-.77,1.96-1.79,2.81-12.25,9.7-26,14.29-41.22,13.78-15.23-.51-28.55-5.96-39.95-16.34-6.13,7.32-11.28,16.08-15.44,26.29-4.17,10.21-7.36,20.76-9.57,31.65-.34,2.04-1.36,3.41-3.06,4.08-1.7.68-3.32.51-4.85-.51s-2.3-2.64-2.3-4.85c.68-23.14,5.19-49.78,13.53-79.9.51-2.04,1.7-3.15,3.57-3.32,1.87-.17,3.49.47,4.85,1.91,1.36,1.45,1.79,3.11,1.28,4.98-2.9,10.38-5.36,20.51-7.4,30.38,4.76-8.68,10.04-15.99,15.83-21.95,1.02-1.02,2.25-1.44,3.7-1.28,1.44.17,2.59.77,3.45,1.79,9.36,10.21,20.84,15.83,34.46,16.85,13.61,1.02,25.78-2.81,36.5-11.49Z"/>
  </g>
  <path class="cls-1" d="m531.48,254.15c-3.08,0-6.12-.27-9.08-.82-6.04-1.12-13.55-2.5-18.09-9.16-.26-.38-6.41-9.56-1.64-18.77,3.94-7.61,12.19-9.19,15.55-9.52,4.77-.46,8.39.9,11.59,2.11,2.63.99,5.12,2.27,7.48,3.81-.38-6.25.37-12.44,2.24-18.22,1.2-3.71,3.7-11.42,10.78-17.68,8.08-7.15,14.93-9.57,20.35-7.21,8.18,3.56,8.72,16.46,8.31,23.83-.52,9.38-4.16,16.38-9.21,26.08-2.84,5.45-6.04,10.75-9.53,15.75l-4.92-3.43c3.34-4.79,6.41-9.87,9.13-15.1,5.32-10.22,8.12-15.92,8.54-23.64.53-9.61-1.28-16.5-4.71-18-1.4-.61-5.58-1.23-13.98,6.2-5.85,5.17-7.93,11.59-9.04,15.03-2.31,7.15-2.68,15.03-1.04,22.81l2.04,9.69-7.07-6.94c-3.36-3.3-7.22-5.78-11.47-7.39-2.95-1.12-5.51-2.08-8.89-1.75-2.39.23-8.22,1.31-10.81,6.3-3.11,6,1.23,12.56,1.27,12.63,3.13,4.59,8.52,5.59,14.22,6.64,8.17,1.51,17.02.64,25.6-2.51l2.07,5.63c-6.51,2.39-13.18,3.6-19.67,3.6Z"/>
  <path class="cls-1" d="m507.79,247.26c-3.89-.6-11.21-2.57-16.54-8.99-1.33-1.6-4.09-4.92-4.79-10.01-.53-3.84-.02-9.73,5.44-16.04,5.35-6.2,12.32-7.38,16.48-8.09,4.31-.73,8.77-.61,13.14.33-1-4.81-1.35-9.62-1.04-14.34.29-4.36,1.04-7.66,2.31-10.07.56-1.07,5.73-10.43,15.27-10.49,3.47,0,6.81,1.18,9.93,3.58,6.51,4.99,7.22,12.68,7.29,14.92l-6,.17c-.03-1.12-.42-6.87-4.94-10.33-.76-.58-3.05-2.34-6.2-2.34h-.05c-6.13.04-9.83,6.97-9.99,7.27-1.07,2.04-1.48,5.3-1.64,7.68-.38,5.71.34,11.57,2.13,17.43l1.79,5.85-5.72-2.16c-3.48-1.32-8.96-2.66-15.29-1.58-3.8.64-9,1.52-12.9,6.04-4.03,4.66-4.44,8.74-4.08,11.35.47,3.39,2.34,5.65,3.46,7,4.06,4.9,9.79,6.42,12.84,6.89l-.92,5.93Z"/>
  <g>
    <path class="cls-1" d="m397.46,513.19c-.08,0-.16,0-.24,0-1.86-.09-3.27-1.21-3.89-3.07-3.76-10.89-5.82-23.72-6.15-38.26-3.48,7.04-7.62,13.1-12.39,18.11-1.36,1.52-2.99,2.83-4.78,3.83-1.79,1-3.55,1.67-5.24,2.01-2.28.46-4.41-.23-6.01-1.94-1.46-1.56-2.21-3.8-2.3-6.85-.08-5.24,1.69-10.63,5.24-16.07,3.58-5.47,7.86-9.15,12.7-10.93,2.58-.86,4.83.1,5.95,2.48.07.17.14.33.2.5.39-1.03.78-2.09,1.16-3.19,5.13-14.96,8.96-34.74,11.4-58.79.15-1.78,1.18-3.19,2.85-3.82,1.49-.57,3.05-.41,4.4.44,1.47.93,2.23,2.49,2.08,4.27l-.77,7.65c-.65,5.93-1.27,11.14-1.86,15.5-.86,7.12-1.52,12.84-1.95,17.01-.43,4.16-.83,9.6-1.19,16.18-.36,6.55-.41,12.25-.16,16.96.25,4.72.82,9.99,1.71,15.67.88,5.62,2.18,10.97,3.86,15.88.58,1.74.27,3.4-.87,4.69-.98,1.11-2.31,1.72-3.76,1.72Zm-19.24-44.56s-.02.01-.03.02l-.22.09c-4.15,1.49-7.53,5.27-10.06,11.23-1.02,2.34-1.5,3.88-1.73,4.85.52-.34,1.2-.83,2.07-1.56,3.57-2.99,6.91-7.9,9.98-14.64Z"/>
    <path class="cls-1" d="m409.41,495c-4.31,0-6.58-2.23-7.74-4.16-1.59-2.63-2.08-5.67-1.46-9.03,1.09-6.06,4.24-12.16,9.37-18.13l.13-.14c.09-.09.19-.18.29-.27,1.06-2.02,3.05-2.96,5.36-2.47l.11.02c4.19,1.07,7.17,3.66,8.86,7.71,1.62,3.89,1.71,7.85.26,11.78-1.16,3.4-2.95,6.62-5.3,9.51-2.63,3.24-5.72,4.98-9.2,5.16-.23.01-.45.02-.67.02Zm6.08-23.78c-.12.16-.24.32-.36.49-.64.89-1.39,1.98-2.23,3.24-.81,1.21-1.52,2.44-2.13,3.65-.6,1.2-1.1,2.39-1.5,3.55-.32.92-.44,1.75-.37,2.47.05.46.18.71.31.87.32-.11,1.22-.54,2.83-2.24,2.8-2.92,4.24-5.82,4.43-8.86.1-1.38-.21-2.4-.99-3.18Z"/>
    <path class="cls-1" d="m505.1,550.51c-6.68,0-13.3-.32-19.85-.97-.43-.05-1.17-.13-2.62-.21h-.12c-2.77-.3-4.93-.54-6.49-.72-1.57-.18-3.85-.48-6.84-.88-3.04-.41-5.63-.86-7.69-1.35-2.03-.48-4.42-1.13-7.1-1.94-2.78-.84-5.18-1.78-7.12-2.78-1.94-1.01-3.87-2.27-5.73-3.74-1.96-1.55-3.55-3.31-4.71-5.23-1.66-2.66-2.57-5.46-2.7-8.31-.13-2.83.39-5.49,1.54-7.92,1.07-2.26,2.56-4.51,4.44-6.7,1.84-2.14,3.78-4.03,5.79-5.61,1.97-1.55,4.07-2.99,6.26-4.27,19.1-11.55,40.9-21.28,64.79-28.92,1.98-9.15,4.55-18.39,7.64-27.48,6.27-38.12,10.77-65.61,13.77-84.04.3-1.78,1.37-3.08,3.03-3.69,1.52-.55,3.08-.39,4.42.45,1.55.98,2.26,2.61,1.95,4.48-1.02,5.95-2.16,12.74-3.42,20.38-1.27,7.65-2.54,15.31-3.8,22.99-.17,1.04-.34,2.06-.5,3.06,1.37-2.65,2.76-5.23,4.18-7.74.29-.51,1.06-1.91,2.32-4.21,1.27-2.33,2.19-3.96,2.72-4.83.51-.84,1.4-2.28,2.68-4.32,1.33-2.14,2.45-3.74,3.4-4.89.88-1.06,1.95-2.34,3.23-3.83,1.37-1.6,2.79-2.98,4.23-4.1,1.4-1.09,2.9-2.08,4.46-2.94l.14-.07c3.85-1.81,7.52-2.76,10.9-2.85,3.61-.08,6.78.89,9.45,2.89,2.52,1.9,4.48,4.27,5.85,7.03,1.36,2.77,2.04,6.02,2,9.67-.04,3.63-.91,7.21-2.59,10.64-1.95,4.13-4.51,8.13-7.6,11.86-3.08,3.72-6.71,7.19-10.78,10.33-4.01,3.09-7.93,5.85-11.65,8.23-.18.11-.35.23-.53.34,15.43-2.23,30.07-2.7,43.67-1.4,20.9,1.96,35.26,9.43,42.69,22.21l.02.03c3.67,6.5,5.56,13.26,5.6,20.08.04,6.78-1.39,13.12-4.23,18.85-2.77,5.59-6.59,11.01-11.33,16.13-4.71,5.08-9.82,9.55-15.19,13.29-5.35,3.73-10.91,6.93-16.53,9.51-19.38,8.89-39.72,15.42-60.47,19.43-13.97,2.7-27.87,4.05-41.54,4.05Zm9.81-69.02c-20.86,7.01-39.99,15.7-56.93,25.85-1.81,1.01-3.28,1.91-4.45,2.7-1.17.79-2.54,1.81-4.08,3.04-1.4,1.11-2.57,2.33-3.48,3.62-.88,1.25-1.51,2.51-1.87,3.75-.38,1.21-.58,2.3-.61,3.3-.03.87.1,1.65.36,2.3.34.83.73,1.59,1.15,2.27.32.51.82,1,1.49,1.46.93.64,1.77,1.21,2.52,1.71.61.4,1.44.82,2.47,1.22,1.14.45,2.08.8,2.81,1.04.74.25,1.69.55,2.83.91,9.33,2.9,20.38,4.88,32.83,5.87,20.08,1.57,41.55-.24,63.81-5.38,5.75-1.37,11.24-2.77,16.32-4.16,5.05-1.39,11.08-3.33,17.92-5.76,6.8-2.42,12.99-5.01,18.42-7.71,5.4-2.68,10.88-6.01,16.29-9.9,5.33-3.83,9.73-7.91,13.09-12.14,3.29-4.14,5.78-9.05,7.38-14.58,1.59-5.48,1.88-11.36.86-17.48-.8-4.46-2.37-8.47-4.67-11.9-2.3-3.43-5.1-6.23-8.31-8.32-3.29-2.14-7.24-3.88-11.73-5.19-4.57-1.33-9.3-2.23-14.05-2.68-4.8-.46-10.05-.6-15.61-.43-5.59.18-10.92.56-15.83,1.13-4.94.57-10.11,1.35-15.39,2.31-5.29.97-9.9,1.89-13.7,2.75-3.49.79-6.98,1.66-10.38,2.58-.21.65-.43,1.34-.67,2.08-.36,2.28-.78,4.91-1.28,7.88-.51,3.04-1.02,6.1-1.52,9.18-.24,1.48-.48,2.88-.71,4.19,15.01-4.2,30.65-7.58,46.56-10.05,1.8-.3,3.43.38,4.46,1.87.91,1.34,1.13,2.89.64,4.38-.55,1.64-1.88,2.74-3.65,3.04-17.06,2.65-33.77,6.35-49.73,11.01l-8.22,49.98c-.39,2.49-2.01,3.42-2.94,3.75-1.47.51-2.98.32-4.28-.55-1.35-.9-2.09-2.33-2.09-4.04.07-14.93,1.4-30.01,3.97-44.91Zm37.23-77.14c-4.69,8.28-8.94,17.02-12.66,26.04,1.05-.56,1.98-1.06,2.78-1.49,2.07-1.11,4.8-2.61,8.32-4.59,3.39-1.9,6.24-3.67,8.48-5.25,2.31-1.63,4.87-3.49,7.6-5.55,2.69-2.02,5.18-4.16,7.42-6.36,2.23-2.2,4.32-4.54,6.19-6.97,3.76-4.77,5.89-9.18,6.35-13.11.29-2.55-.06-4.55-1.08-6.13-1.02-1.56-2.3-2.56-3.94-3.04-1.85-.54-3.91-.65-6.15-.31-2.23.34-4.19,1.14-5.98,2.43-1.18.85-2.36,1.9-3.51,3.12-1.22,1.29-2.27,2.48-3.13,3.55-.84,1.04-1.86,2.52-3.04,4.38-1.17,1.86-2.08,3.33-2.61,4.27-.54.93-1.44,2.53-2.7,4.8-1.28,2.3-2.06,3.7-2.35,4.21Z"/>
    <path class="cls-1" d="m667.16,495c-4.31,0-6.58-2.23-7.74-4.16-1.59-2.63-2.08-5.67-1.46-9.03,1.09-6.06,4.24-12.17,9.37-18.14l.13-.14c.09-.09.19-.18.29-.27,1.06-2.02,3.04-2.96,5.36-2.48l.11.02c4.19,1.07,7.17,3.66,8.86,7.71,1.62,3.89,1.71,7.85.26,11.78-1.16,3.39-2.95,6.62-5.3,9.51-2.63,3.24-5.73,4.98-9.2,5.16-.23.01-.45.02-.67.02Zm6.08-23.78c-.12.16-.24.32-.36.49-.64.9-1.4,1.99-2.23,3.24-.81,1.21-1.52,2.44-2.13,3.64-.6,1.2-1.11,2.39-1.5,3.55-.32.92-.44,1.75-.37,2.47.05.46.18.71.31.87.32-.11,1.22-.54,2.83-2.24,2.8-2.92,4.24-5.82,4.43-8.86.1-1.38-.21-2.4-.99-3.18Z"/>
    <path class="cls-1" d="m707.83,496.08c-2.04,0-4.06-.39-6.05-1.16-2.89-1.12-5.42-3.22-7.51-6.23-1.19-1.78-2.11-3.89-2.75-6.33-.62-2.33-1-4.56-1.11-6.64-.11-2.02-.06-4.5.17-7.35.23-2.86.46-5.08.73-6.81.25-1.68.66-3.99,1.21-6.88.66-3.48.92-4.98,1.02-5.62.51-3.12,1.08-6.36,1.7-9.65.61-3.26,1.35-6.72,2.2-10.28.83-3.52,1.58-6.6,2.24-9.22.65-2.61,1.48-5.97,2.5-10.1,1.02-4.14,1.82-7.34,2.4-9.51.61-2.31,2.56-3.56,4.97-3.18,2.2.34,3.7,1.77,4.03,3.81.53,2.5.83,4.89.91,7.1.08,2.27-.08,4.58-.47,6.86-.38,2.22-.84,4.3-1.36,6.18-.52,1.84-1.26,4.11-2.21,6.75-.5,1.56-1.69,2.64-3.29,2.96-.15.03-.3.05-.45.07-2.91,12.88-4.79,24.13-5.59,33.46l-.02.14c-.07.49-.19,1.57-.37,3.22-.18,1.7-.32,3.1-.43,4.22-.1,1.07-.17,2.34-.21,3.79-.03,1.35.05,2.57.23,3.64.16.9.41,1.62.73,2.14l.1.17c.54,1.02,1.14,1.88,1.77,2.54.68.72,1.33,1.28,1.91,1.69.35.24.83.38,1.45.42,1.08.07,1.94.13,2.58.16.03,0,.48.01,1.8-.49,1.28-.49,2.2-.83,2.76-1.01.1-.03.61-.23,2.18-1.21,1.95-1.22,2.37-1.46,2.51-1.54.13-.08.83-.53,4.06-2.84,6.44-4.53,12.49-9.79,18-15.66,1.92-2.05,4.47-2.22,6.66-.45,1.4,1.05,1.79,2.27,1.87,3.11.07.82-.09,2.07-1.29,3.36-1.74,1.89-3.43,3.65-5.01,5.23-1.6,1.6-3.76,3.62-6.62,6.18-2.84,2.55-5.53,4.74-7.97,6.52-2.48,1.81-5.32,3.52-8.44,5.1-3.23,1.63-6.23,2.68-8.94,3.12-.86.14-1.73.21-2.59.21Zm36.05-28.77h0Z"/>
    <path class="cls-1" d="m741.77,495c-4.31,0-6.58-2.23-7.74-4.16-1.59-2.63-2.08-5.67-1.46-9.03,1.09-6.06,4.24-12.17,9.37-18.14l.13-.14c.09-.09.19-.18.29-.27,1.06-2.02,3.04-2.96,5.36-2.48l.11.02c4.19,1.07,7.17,3.66,8.86,7.71,1.62,3.89,1.71,7.85.26,11.78-1.16,3.39-2.95,6.62-5.3,9.51-2.63,3.24-5.73,4.98-9.2,5.16-.23.01-.45.02-.67.02Zm6.08-23.78c-.12.16-.24.32-.36.49-.64.9-1.4,1.99-2.23,3.24-.81,1.21-1.52,2.44-2.13,3.64-.6,1.2-1.11,2.39-1.5,3.55-.32.92-.44,1.75-.37,2.47.05.46.18.71.31.87.32-.11,1.22-.54,2.83-2.24,2.8-2.92,4.24-5.82,4.43-8.86.1-1.38-.21-2.4-.99-3.18Z"/>
  </g>
</svg>